# Wavefront OBJ file automatically generated by Tiled2Unity

# Vertices (Count = 312)
v -35200 -3200 0
v -38400 -3200 0
v -38400 0 0
v -35200 0 0
v -32000 -3200 0
v -32000 0 0
v -28800 -3200 0
v -28800 0 0
v -25600 -3200 0
v -25600 0 0
v -22400 -3200 0
v -22400 0 0
v -19200 -3200 0
v -19200 0 0
v -16000 -3200 0
v -16000 0 0
v -12800 -3200 0
v -12800 0 0
v -9600 -3200 0
v -9600 0 0
v -6400 -3200 0
v -6400 0 0
v -3200 -3200 0
v -3200 0 0
v 0 -3200 0
v 0 0 0
v -35200 -6400 -0.08333334
v -38400 -6400 -0.08333334
v -38400 -3200 -0.08333334
v -35200 -3200 -0.08333334
v -32000 -6400 -0.08333334
v -32000 -3200 -0.08333334
v -28800 -6400 -0.08333334
v -28800 -3200 -0.08333334
v -25600 -6400 -0.08333334
v -25600 -3200 -0.08333334
v -22400 -6400 -0.08333334
v -22400 -3200 -0.08333334
v -19200 -6400 -0.08333334
v -19200 -3200 -0.08333334
v -16000 -6400 -0.08333334
v -16000 -3200 -0.08333334
v -12800 -6400 -0.08333334
v -12800 -3200 -0.08333334
v -9600 -6400 -0.08333334
v -9600 -3200 -0.08333334
v -6400 -6400 -0.08333334
v -6400 -3200 -0.08333334
v -3200 -6400 -0.08333334
v -3200 -3200 -0.08333334
v 0 -6400 -0.08333334
v 0 -3200 -0.08333334
v -35200 -9600 -0.1666667
v -38400 -9600 -0.1666667
v -38400 -6400 -0.1666667
v -35200 -6400 -0.1666667
v -32000 -9600 -0.1666667
v -32000 -6400 -0.1666667
v -28800 -9600 -0.1666667
v -28800 -6400 -0.1666667
v -25600 -9600 -0.1666667
v -25600 -6400 -0.1666667
v -22400 -9600 -0.1666667
v -22400 -6400 -0.1666667
v -19200 -9600 -0.1666667
v -19200 -6400 -0.1666667
v -16000 -9600 -0.1666667
v -16000 -6400 -0.1666667
v -12800 -9600 -0.1666667
v -12800 -6400 -0.1666667
v -9600 -9600 -0.1666667
v -9600 -6400 -0.1666667
v -6400 -9600 -0.1666667
v -6400 -6400 -0.1666667
v -3200 -9600 -0.1666667
v -3200 -6400 -0.1666667
v 0 -9600 -0.1666667
v 0 -6400 -0.1666667
v -35200 -12800 -0.25
v -38400 -12800 -0.25
v -38400 -9600 -0.25
v -35200 -9600 -0.25
v -32000 -12800 -0.25
v -32000 -9600 -0.25
v -28800 -12800 -0.25
v -28800 -9600 -0.25
v -25600 -12800 -0.25
v -25600 -9600 -0.25
v -22400 -12800 -0.25
v -22400 -9600 -0.25
v -19200 -12800 -0.25
v -19200 -9600 -0.25
v -16000 -12800 -0.25
v -16000 -9600 -0.25
v -12800 -12800 -0.25
v -12800 -9600 -0.25
v -9600 -12800 -0.25
v -9600 -9600 -0.25
v -6400 -12800 -0.25
v -6400 -9600 -0.25
v -3200 -12800 -0.25
v -3200 -9600 -0.25
v 0 -12800 -0.25
v 0 -9600 -0.25
v -35200 -16000 -0.3333333
v -38400 -16000 -0.3333333
v -38400 -12800 -0.3333333
v -35200 -12800 -0.3333333
v -32000 -16000 -0.3333333
v -32000 -12800 -0.3333333
v -28800 -16000 -0.3333333
v -28800 -12800 -0.3333333
v -25600 -16000 -0.3333333
v -25600 -12800 -0.3333333
v -22400 -16000 -0.3333333
v -22400 -12800 -0.3333333
v -19200 -16000 -0.3333333
v -19200 -12800 -0.3333333
v -16000 -16000 -0.3333333
v -16000 -12800 -0.3333333
v -12800 -16000 -0.3333333
v -12800 -12800 -0.3333333
v -9600 -16000 -0.3333333
v -9600 -12800 -0.3333333
v -6400 -16000 -0.3333333
v -6400 -12800 -0.3333333
v -3200 -16000 -0.3333333
v -3200 -12800 -0.3333333
v 0 -16000 -0.3333333
v 0 -12800 -0.3333333
v -35200 -19200 -0.4166667
v -38400 -19200 -0.4166667
v -38400 -16000 -0.4166667
v -35200 -16000 -0.4166667
v -32000 -19200 -0.4166667
v -32000 -16000 -0.4166667
v -28800 -19200 -0.4166667
v -28800 -16000 -0.4166667
v -25600 -19200 -0.4166667
v -25600 -16000 -0.4166667
v -22400 -19200 -0.4166667
v -22400 -16000 -0.4166667
v -19200 -19200 -0.4166667
v -19200 -16000 -0.4166667
v -16000 -19200 -0.4166667
v -16000 -16000 -0.4166667
v -12800 -19200 -0.4166667
v -12800 -16000 -0.4166667
v -9600 -19200 -0.4166667
v -9600 -16000 -0.4166667
v -6400 -19200 -0.4166667
v -6400 -16000 -0.4166667
v -3200 -19200 -0.4166667
v -3200 -16000 -0.4166667
v 0 -19200 -0.4166667
v 0 -16000 -0.4166667
v -35200 -22400 -0.5
v -38400 -22400 -0.5
v -38400 -19200 -0.5
v -35200 -19200 -0.5
v -32000 -22400 -0.5
v -32000 -19200 -0.5
v -28800 -22400 -0.5
v -28800 -19200 -0.5
v -25600 -22400 -0.5
v -25600 -19200 -0.5
v -22400 -22400 -0.5
v -22400 -19200 -0.5
v -19200 -22400 -0.5
v -19200 -19200 -0.5
v -16000 -22400 -0.5
v -16000 -19200 -0.5
v -12800 -22400 -0.5
v -12800 -19200 -0.5
v -9600 -22400 -0.5
v -9600 -19200 -0.5
v -6400 -22400 -0.5
v -6400 -19200 -0.5
v -3200 -22400 -0.5
v -3200 -19200 -0.5
v 0 -22400 -0.5
v 0 -19200 -0.5
v -35200 -25600 -0.5833333
v -38400 -25600 -0.5833333
v -38400 -22400 -0.5833333
v -35200 -22400 -0.5833333
v -32000 -25600 -0.5833333
v -32000 -22400 -0.5833333
v -28800 -25600 -0.5833333
v -28800 -22400 -0.5833333
v -25600 -25600 -0.5833333
v -25600 -22400 -0.5833333
v -22400 -25600 -0.5833333
v -22400 -22400 -0.5833333
v -19200 -25600 -0.5833333
v -19200 -22400 -0.5833333
v -16000 -25600 -0.5833333
v -16000 -22400 -0.5833333
v -12800 -25600 -0.5833333
v -12800 -22400 -0.5833333
v -9600 -25600 -0.5833333
v -9600 -22400 -0.5833333
v -6400 -25600 -0.5833333
v -6400 -22400 -0.5833333
v -3200 -25600 -0.5833333
v -3200 -22400 -0.5833333
v 0 -25600 -0.5833333
v 0 -22400 -0.5833333
v -35200 -28800 -0.6666667
v -38400 -28800 -0.6666667
v -38400 -25600 -0.6666667
v -35200 -25600 -0.6666667
v -32000 -28800 -0.6666667
v -32000 -25600 -0.6666667
v -28800 -28800 -0.6666667
v -28800 -25600 -0.6666667
v -25600 -28800 -0.6666667
v -25600 -25600 -0.6666667
v -22400 -28800 -0.6666667
v -22400 -25600 -0.6666667
v -19200 -28800 -0.6666667
v -19200 -25600 -0.6666667
v -16000 -28800 -0.6666667
v -16000 -25600 -0.6666667
v -12800 -28800 -0.6666667
v -12800 -25600 -0.6666667
v -9600 -28800 -0.6666667
v -9600 -25600 -0.6666667
v -6400 -28800 -0.6666667
v -6400 -25600 -0.6666667
v -3200 -28800 -0.6666667
v -3200 -25600 -0.6666667
v 0 -28800 -0.6666667
v 0 -25600 -0.6666667
v -35200 -32000 -0.75
v -38400 -32000 -0.75
v -38400 -28800 -0.75
v -35200 -28800 -0.75
v -32000 -32000 -0.75
v -32000 -28800 -0.75
v -28800 -32000 -0.75
v -28800 -28800 -0.75
v -25600 -32000 -0.75
v -25600 -28800 -0.75
v -22400 -32000 -0.75
v -22400 -28800 -0.75
v -19200 -32000 -0.75
v -19200 -28800 -0.75
v -16000 -32000 -0.75
v -16000 -28800 -0.75
v -12800 -32000 -0.75
v -12800 -28800 -0.75
v -9600 -32000 -0.75
v -9600 -28800 -0.75
v -6400 -32000 -0.75
v -6400 -28800 -0.75
v -3200 -32000 -0.75
v -3200 -28800 -0.75
v 0 -32000 -0.75
v 0 -28800 -0.75
v -35200 -35200 -0.8333333
v -38400 -35200 -0.8333333
v -38400 -32000 -0.8333333
v -35200 -32000 -0.8333333
v -32000 -35200 -0.8333333
v -32000 -32000 -0.8333333
v -28800 -35200 -0.8333333
v -28800 -32000 -0.8333333
v -25600 -35200 -0.8333333
v -25600 -32000 -0.8333333
v -22400 -35200 -0.8333333
v -22400 -32000 -0.8333333
v -19200 -35200 -0.8333333
v -19200 -32000 -0.8333333
v -16000 -35200 -0.8333333
v -16000 -32000 -0.8333333
v -12800 -35200 -0.8333333
v -12800 -32000 -0.8333333
v -9600 -35200 -0.8333333
v -9600 -32000 -0.8333333
v -6400 -35200 -0.8333333
v -6400 -32000 -0.8333333
v -3200 -35200 -0.8333333
v -3200 -32000 -0.8333333
v 0 -35200 -0.8333333
v 0 -32000 -0.8333333
v -35200 -38400 -0.9166667
v -38400 -38400 -0.9166667
v -38400 -35200 -0.9166667
v -35200 -35200 -0.9166667
v -32000 -38400 -0.9166667
v -32000 -35200 -0.9166667
v -28800 -38400 -0.9166667
v -28800 -35200 -0.9166667
v -25600 -38400 -0.9166667
v -25600 -35200 -0.9166667
v -22400 -38400 -0.9166667
v -22400 -35200 -0.9166667
v -19200 -38400 -0.9166667
v -19200 -35200 -0.9166667
v -16000 -38400 -0.9166667
v -16000 -35200 -0.9166667
v -12800 -38400 -0.9166667
v -12800 -35200 -0.9166667
v -9600 -38400 -0.9166667
v -9600 -35200 -0.9166667
v -6400 -38400 -0.9166667
v -6400 -35200 -0.9166667
v -3200 -38400 -0.9166667
v -3200 -35200 -0.9166667
v 0 -38400 -0.9166667
v 0 -35200 -0.9166667

# Texture cooridinates (Count = 100)
vt 0.7500076 0.4375076
vt 0.8124924 0.4375076
vt 0.8124924 0.4999924
vt 0.7500076 0.4999924
vt 0.5625076 0.4375076
vt 0.6249924 0.4375076
vt 0.6249924 0.4999924
vt 0.5625076 0.4999924
vt 0.1000122 1.221895E-05
vt 0.1999878 1.221895E-05
vt 0.1999878 0.0999878
vt 0.1000122 0.0999878
vt 0.1000122 0.4000122
vt 0.1999878 0.4000122
vt 0.1999878 0.4999878
vt 0.1000122 0.4999878
vt 1.220703E-05 1.221895E-05
vt 0.09998779 1.221895E-05
vt 0.09998779 0.0999878
vt 1.220703E-05 0.0999878
vt 1.220703E-05 0.4000122
vt 0.09998779 0.4000122
vt 0.09998779 0.4999878
vt 1.220703E-05 0.4999878
vt 0.2000122 0.5000122
vt 0.2999878 0.5000122
vt 0.2999878 0.5999878
vt 0.2000122 0.5999878
vt 0.1000122 0.6000122
vt 0.1999878 0.6000122
vt 0.1999878 0.6999878
vt 0.1000122 0.6999878
vt 0.3000122 1.221895E-05
vt 0.3999878 1.221895E-05
vt 0.3999878 0.0999878
vt 0.3000122 0.0999878
vt 1.220703E-05 0.6000122
vt 0.09998779 0.6000122
vt 0.09998779 0.6999878
vt 1.220703E-05 0.6999878
vt 0.2000122 1.221895E-05
vt 0.2999878 1.221895E-05
vt 0.2999878 0.0999878
vt 0.2000122 0.0999878
vt 0.2500076 0.8125076
vt 0.3124924 0.8125076
vt 0.3124924 0.8749924
vt 0.2500076 0.8749924
vt 0.2500076 0.7500076
vt 0.3124924 0.7500076
vt 0.3124924 0.8124924
vt 0.2500076 0.8124924
vt 0.1250076 0.9375076
vt 0.1874924 0.9375076
vt 0.1874924 0.9999924
vt 0.1250076 0.9999924
vt 0.06250763 0.9375076
vt 0.1249924 0.9375076
vt 0.1249924 0.9999924
vt 0.06250763 0.9999924
vt 7.629395E-06 0.9375076
vt 0.06249237 0.9375076
vt 0.06249237 0.9999924
vt 7.629395E-06 0.9999924
vt 0.1250076 0.8750076
vt 0.1874924 0.8750076
vt 0.1874924 0.9374924
vt 0.1250076 0.9374924
vt 0.06250763 0.8750076
vt 0.1249924 0.8750076
vt 0.1249924 0.9374924
vt 0.06250763 0.9374924
vt 7.629395E-06 0.8750076
vt 0.06249237 0.8750076
vt 0.06249237 0.9374924
vt 7.629395E-06 0.9374924
vt 0.1250076 0.8125076
vt 0.1874924 0.8125076
vt 0.1874924 0.8749924
vt 0.1250076 0.8749924
vt 0.06250763 0.8125076
vt 0.1249924 0.8125076
vt 0.1249924 0.8749924
vt 0.06250763 0.8749924
vt 7.629395E-06 0.8125076
vt 0.06249237 0.8125076
vt 0.06249237 0.8749924
vt 7.629395E-06 0.8749924
vt 0.3125076 0.7500076
vt 0.3749924 0.7500076
vt 0.3749924 0.8124924
vt 0.3125076 0.8124924
vt 0.6250076 0.4375076
vt 0.6874924 0.4375076
vt 0.6874924 0.4999924
vt 0.6250076 0.4999924
vt 0.6875076 0.4375076
vt 0.7499924 0.4375076
vt 0.7499924 0.4999924
vt 0.6875076 0.4999924

# Normal
vn 0 0 -1

# Groups (Count = 4)

g mesh_0001
f 1/1/1 2/2/1 3/3/1 4/4/1
f 5/1/1 1/2/1 4/3/1 6/4/1
f 7/1/1 5/2/1 6/3/1 8/4/1
f 9/1/1 7/2/1 8/3/1 10/4/1
f 11/1/1 9/2/1 10/3/1 12/4/1
f 13/1/1 11/2/1 12/3/1 14/4/1
f 15/1/1 13/2/1 14/3/1 16/4/1
f 17/1/1 15/2/1 16/3/1 18/4/1
f 19/1/1 17/2/1 18/3/1 20/4/1
f 21/1/1 19/2/1 20/3/1 22/4/1
f 23/1/1 21/2/1 22/3/1 24/4/1
f 25/1/1 23/2/1 24/3/1 26/4/1
f 27/1/1 28/2/1 29/3/1 30/4/1
f 31/5/1 27/6/1 30/7/1 32/8/1
f 33/5/1 31/6/1 32/7/1 34/8/1
f 35/5/1 33/6/1 34/7/1 36/8/1
f 37/5/1 35/6/1 36/7/1 38/8/1
f 39/5/1 37/6/1 38/7/1 40/8/1
f 41/5/1 39/6/1 40/7/1 42/8/1
f 43/5/1 41/6/1 42/7/1 44/8/1
f 45/5/1 43/6/1 44/7/1 46/8/1
f 47/5/1 45/6/1 46/7/1 48/8/1
f 49/5/1 47/6/1 48/7/1 50/8/1
f 51/1/1 49/2/1 50/3/1 52/4/1
f 53/1/1 54/2/1 55/3/1 56/4/1
f 57/5/1 53/6/1 56/7/1 58/8/1
f 59/5/1 57/6/1 58/7/1 60/8/1
f 61/5/1 59/6/1 60/7/1 62/8/1
f 63/5/1 61/6/1 62/7/1 64/8/1
f 65/5/1 63/6/1 64/7/1 66/8/1
f 67/5/1 65/6/1 66/7/1 68/8/1
f 69/5/1 67/6/1 68/7/1 70/8/1
f 71/5/1 69/6/1 70/7/1 72/8/1
f 73/5/1 71/6/1 72/7/1 74/8/1
f 75/5/1 73/6/1 74/7/1 76/8/1
f 77/1/1 75/2/1 76/3/1 78/4/1
f 79/1/1 80/2/1 81/3/1 82/4/1
f 83/5/1 79/6/1 82/7/1 84/8/1
f 85/5/1 83/6/1 84/7/1 86/8/1
f 87/5/1 85/6/1 86/7/1 88/8/1
f 89/5/1 87/6/1 88/7/1 90/8/1
f 91/5/1 89/6/1 90/7/1 92/8/1
f 93/5/1 91/6/1 92/7/1 94/8/1
f 95/5/1 93/6/1 94/7/1 96/8/1
f 97/5/1 95/6/1 96/7/1 98/8/1
f 99/5/1 97/6/1 98/7/1 100/8/1
f 101/5/1 99/6/1 100/7/1 102/8/1
f 103/1/1 101/2/1 102/3/1 104/4/1
f 105/1/1 106/2/1 107/3/1 108/4/1
f 109/5/1 105/6/1 108/7/1 110/8/1
f 111/5/1 109/6/1 110/7/1 112/8/1
f 113/5/1 111/6/1 112/7/1 114/8/1
f 115/5/1 113/6/1 114/7/1 116/8/1
f 117/5/1 115/6/1 116/7/1 118/8/1
f 119/5/1 117/6/1 118/7/1 120/8/1
f 121/5/1 119/6/1 120/7/1 122/8/1
f 123/5/1 121/6/1 122/7/1 124/8/1
f 125/5/1 123/6/1 124/7/1 126/8/1
f 127/5/1 125/6/1 126/7/1 128/8/1
f 129/1/1 127/2/1 128/3/1 130/4/1
f 131/1/1 132/2/1 133/3/1 134/4/1
f 135/5/1 131/6/1 134/7/1 136/8/1
f 137/5/1 135/6/1 136/7/1 138/8/1
f 139/5/1 137/6/1 138/7/1 140/8/1
f 141/5/1 139/6/1 140/7/1 142/8/1
f 143/5/1 141/6/1 142/7/1 144/8/1
f 145/5/1 143/6/1 144/7/1 146/8/1
f 147/5/1 145/6/1 146/7/1 148/8/1
f 149/5/1 147/6/1 148/7/1 150/8/1
f 151/5/1 149/6/1 150/7/1 152/8/1
f 153/5/1 151/6/1 152/7/1 154/8/1
f 155/1/1 153/2/1 154/3/1 156/4/1
f 157/1/1 158/2/1 159/3/1 160/4/1
f 161/5/1 157/6/1 160/7/1 162/8/1
f 163/5/1 161/6/1 162/7/1 164/8/1
f 165/5/1 163/6/1 164/7/1 166/8/1
f 167/5/1 165/6/1 166/7/1 168/8/1
f 169/5/1 167/6/1 168/7/1 170/8/1
f 171/5/1 169/6/1 170/7/1 172/8/1
f 173/5/1 171/6/1 172/7/1 174/8/1
f 175/5/1 173/6/1 174/7/1 176/8/1
f 177/5/1 175/6/1 176/7/1 178/8/1
f 179/5/1 177/6/1 178/7/1 180/8/1
f 181/1/1 179/2/1 180/3/1 182/4/1
f 183/1/1 184/2/1 185/3/1 186/4/1
f 187/5/1 183/6/1 186/7/1 188/8/1
f 189/5/1 187/6/1 188/7/1 190/8/1
f 191/5/1 189/6/1 190/7/1 192/8/1
f 193/5/1 191/6/1 192/7/1 194/8/1
f 195/5/1 193/6/1 194/7/1 196/8/1
f 197/5/1 195/6/1 196/7/1 198/8/1
f 199/5/1 197/6/1 198/7/1 200/8/1
f 201/5/1 199/6/1 200/7/1 202/8/1
f 203/5/1 201/6/1 202/7/1 204/8/1
f 205/5/1 203/6/1 204/7/1 206/8/1
f 207/1/1 205/2/1 206/3/1 208/4/1
f 209/1/1 210/2/1 211/3/1 212/4/1
f 213/5/1 209/6/1 212/7/1 214/8/1
f 215/5/1 213/6/1 214/7/1 216/8/1
f 217/5/1 215/6/1 216/7/1 218/8/1
f 219/5/1 217/6/1 218/7/1 220/8/1
f 221/5/1 219/6/1 220/7/1 222/8/1
f 223/5/1 221/6/1 222/7/1 224/8/1
f 225/5/1 223/6/1 224/7/1 226/8/1
f 227/5/1 225/6/1 226/7/1 228/8/1
f 229/5/1 227/6/1 228/7/1 230/8/1
f 231/5/1 229/6/1 230/7/1 232/8/1
f 233/1/1 231/2/1 232/3/1 234/4/1
f 235/1/1 236/2/1 237/3/1 238/4/1
f 239/5/1 235/6/1 238/7/1 240/8/1
f 241/5/1 239/6/1 240/7/1 242/8/1
f 243/5/1 241/6/1 242/7/1 244/8/1
f 245/5/1 243/6/1 244/7/1 246/8/1
f 247/5/1 245/6/1 246/7/1 248/8/1
f 249/5/1 247/6/1 248/7/1 250/8/1
f 251/5/1 249/6/1 250/7/1 252/8/1
f 253/5/1 251/6/1 252/7/1 254/8/1
f 255/5/1 253/6/1 254/7/1 256/8/1
f 257/5/1 255/6/1 256/7/1 258/8/1
f 259/1/1 257/2/1 258/3/1 260/4/1
f 261/1/1 262/2/1 263/3/1 264/4/1
f 265/5/1 261/6/1 264/7/1 266/8/1
f 267/5/1 265/6/1 266/7/1 268/8/1
f 269/5/1 267/6/1 268/7/1 270/8/1
f 271/5/1 269/6/1 270/7/1 272/8/1
f 273/5/1 271/6/1 272/7/1 274/8/1
f 275/5/1 273/6/1 274/7/1 276/8/1
f 277/5/1 275/6/1 276/7/1 278/8/1
f 279/5/1 277/6/1 278/7/1 280/8/1
f 281/5/1 279/6/1 280/7/1 282/8/1
f 283/5/1 281/6/1 282/7/1 284/8/1
f 285/1/1 283/2/1 284/3/1 286/4/1
f 287/1/1 288/2/1 289/3/1 290/4/1
f 291/1/1 287/2/1 290/3/1 292/4/1
f 293/1/1 291/2/1 292/3/1 294/4/1
f 295/1/1 293/2/1 294/3/1 296/4/1
f 297/1/1 295/2/1 296/3/1 298/4/1
f 299/5/1 297/6/1 298/7/1 300/8/1
f 301/5/1 299/6/1 300/7/1 302/8/1
f 303/1/1 301/2/1 302/3/1 304/4/1
f 305/1/1 303/2/1 304/3/1 306/4/1
f 307/1/1 305/2/1 306/3/1 308/4/1
f 309/1/1 307/2/1 308/3/1 310/4/1
f 311/1/1 309/2/1 310/3/1 312/4/1

g mesh_0002
f 7/9/1 5/10/1 6/11/1 8/12/1
f 9/13/1 7/14/1 8/15/1 10/16/1
f 11/13/1 9/14/1 10/15/1 12/16/1
f 13/13/1 11/14/1 12/15/1 14/16/1
f 15/17/1 13/18/1 14/19/1 16/20/1
f 17/9/1 15/10/1 16/11/1 18/12/1
f 19/13/1 17/14/1 18/15/1 20/16/1
f 21/13/1 19/14/1 20/15/1 22/16/1
f 23/13/1 21/14/1 22/15/1 24/16/1
f 25/17/1 23/18/1 24/19/1 26/20/1
f 33/21/1 31/22/1 32/23/1 34/24/1
f 41/25/1 39/26/1 40/27/1 42/28/1
f 43/29/1 41/30/1 42/31/1 44/32/1
f 51/25/1 49/26/1 50/27/1 52/28/1
f 59/21/1 57/22/1 58/23/1 60/24/1
f 67/25/1 65/26/1 66/27/1 68/28/1
f 69/29/1 67/30/1 68/31/1 70/32/1
f 77/25/1 75/26/1 76/27/1 78/28/1
f 85/21/1 83/22/1 84/23/1 86/24/1
f 93/25/1 91/26/1 92/27/1 94/28/1
f 95/29/1 93/30/1 94/31/1 96/32/1
f 103/25/1 101/26/1 102/27/1 104/28/1
f 111/21/1 109/22/1 110/23/1 112/24/1
f 119/25/1 117/26/1 118/27/1 120/28/1
f 121/29/1 119/30/1 120/31/1 122/32/1
f 129/25/1 127/26/1 128/27/1 130/28/1
f 137/21/1 135/22/1 136/23/1 138/24/1
f 145/25/1 143/26/1 144/27/1 146/28/1
f 147/33/1 145/34/1 146/35/1 148/36/1
f 153/37/1 151/38/1 152/39/1 154/40/1
f 155/41/1 153/42/1 154/43/1 156/44/1
f 163/21/1 161/22/1 162/23/1 164/24/1
f 181/25/1 179/26/1 180/27/1 182/28/1
f 189/21/1 187/22/1 188/23/1 190/24/1
f 207/25/1 205/26/1 206/27/1 208/28/1
f 215/21/1 213/22/1 214/23/1 216/24/1
f 233/25/1 231/26/1 232/27/1 234/28/1
f 241/33/1 239/34/1 240/35/1 242/36/1
f 243/37/1 241/38/1 242/39/1 244/40/1
f 245/37/1 243/38/1 244/39/1 246/40/1
f 247/37/1 245/38/1 246/39/1 248/40/1
f 253/37/1 251/38/1 252/39/1 254/40/1
f 255/37/1 253/38/1 254/39/1 256/40/1
f 257/37/1 255/38/1 256/39/1 258/40/1
f 259/41/1 257/42/1 258/43/1 260/44/1

g mesh_0003
f 11/45/1 9/46/1 10/47/1 12/48/1
f 37/49/1 35/50/1 36/51/1 38/52/1
f 61/53/1 59/54/1 60/55/1 62/56/1
f 63/57/1 61/58/1 62/59/1 64/60/1
f 65/61/1 63/62/1 64/63/1 66/64/1
f 71/53/1 69/54/1 70/55/1 72/56/1
f 73/57/1 71/58/1 72/59/1 74/60/1
f 75/61/1 73/62/1 74/63/1 76/64/1
f 87/65/1 85/66/1 86/67/1 88/68/1
f 89/69/1 87/70/1 88/71/1 90/72/1
f 91/73/1 89/74/1 90/75/1 92/76/1
f 97/65/1 95/66/1 96/67/1 98/68/1
f 99/69/1 97/70/1 98/71/1 100/72/1
f 101/73/1 99/74/1 100/75/1 102/76/1
f 113/77/1 111/78/1 112/79/1 114/80/1
f 115/81/1 113/82/1 114/83/1 116/84/1
f 117/85/1 115/86/1 116/87/1 118/88/1
f 123/77/1 121/78/1 122/79/1 124/80/1
f 125/81/1 123/82/1 124/83/1 126/84/1
f 127/85/1 125/86/1 126/87/1 128/88/1
f 141/89/1 139/90/1 140/91/1 142/92/1

g mesh_0004
f 1/93/1 2/94/1 3/95/1 4/96/1
f 5/93/1 1/94/1 4/95/1 6/96/1
f 7/93/1 5/94/1 6/95/1 8/96/1
f 9/93/1 7/94/1 8/95/1 10/96/1
f 11/93/1 9/94/1 10/95/1 12/96/1
f 13/93/1 11/94/1 12/95/1 14/96/1
f 15/93/1 13/94/1 14/95/1 16/96/1
f 17/93/1 15/94/1 16/95/1 18/96/1
f 19/93/1 17/94/1 18/95/1 20/96/1
f 21/93/1 19/94/1 20/95/1 22/96/1
f 23/93/1 21/94/1 22/95/1 24/96/1
f 25/93/1 23/94/1 24/95/1 26/96/1
f 27/93/1 28/94/1 29/95/1 30/96/1
f 39/97/1 37/98/1 38/99/1 40/100/1
f 51/93/1 49/94/1 50/95/1 52/96/1
f 53/93/1 54/94/1 55/95/1 56/96/1
f 61/93/1 59/94/1 60/95/1 62/96/1
f 65/97/1 63/98/1 64/99/1 66/100/1
f 77/93/1 75/94/1 76/95/1 78/96/1
f 79/93/1 80/94/1 81/95/1 82/96/1
f 85/93/1 83/94/1 84/95/1 86/96/1
f 87/93/1 85/94/1 86/95/1 88/96/1
f 89/93/1 87/94/1 88/95/1 90/96/1
f 91/97/1 89/98/1 90/99/1 92/100/1
f 95/93/1 93/94/1 94/95/1 96/96/1
f 97/93/1 95/94/1 96/95/1 98/96/1
f 99/93/1 97/94/1 98/95/1 100/96/1
f 103/93/1 101/94/1 102/95/1 104/96/1
f 105/93/1 106/94/1 107/95/1 108/96/1
f 111/93/1 109/94/1 110/95/1 112/96/1
f 113/93/1 111/94/1 112/95/1 114/96/1
f 115/93/1 113/94/1 114/95/1 116/96/1
f 117/97/1 115/98/1 116/99/1 118/100/1
f 121/93/1 119/94/1 120/95/1 122/96/1
f 123/93/1 121/94/1 122/95/1 124/96/1
f 125/93/1 123/94/1 124/95/1 126/96/1
f 129/93/1 127/94/1 128/95/1 130/96/1
f 131/93/1 132/94/1 133/95/1 134/96/1
f 137/93/1 135/94/1 136/95/1 138/96/1
f 139/93/1 137/94/1 138/95/1 140/96/1
f 141/93/1 139/94/1 140/95/1 142/96/1
f 143/97/1 141/98/1 142/99/1 144/100/1
f 147/93/1 145/94/1 146/95/1 148/96/1
f 149/93/1 147/94/1 148/95/1 150/96/1
f 151/93/1 149/94/1 150/95/1 152/96/1
f 155/93/1 153/94/1 154/95/1 156/96/1
f 157/93/1 158/94/1 159/95/1 160/96/1
f 165/93/1 163/94/1 164/95/1 166/96/1
f 169/97/1 167/98/1 168/99/1 170/100/1
f 181/93/1 179/94/1 180/95/1 182/96/1
f 183/93/1 184/94/1 185/95/1 186/96/1
f 197/97/1 195/98/1 196/99/1 198/100/1
f 203/97/1 201/98/1 202/99/1 204/100/1
f 205/97/1 203/98/1 204/99/1 206/100/1
f 207/93/1 205/94/1 206/95/1 208/96/1
f 209/93/1 210/94/1 211/95/1 212/96/1
f 233/93/1 231/94/1 232/95/1 234/96/1
f 235/93/1 236/94/1 237/95/1 238/96/1
f 259/93/1 257/94/1 258/95/1 260/96/1
f 261/93/1 262/94/1 263/95/1 264/96/1
f 285/93/1 283/94/1 284/95/1 286/96/1
f 287/93/1 288/94/1 289/95/1 290/96/1
f 291/93/1 287/94/1 290/95/1 292/96/1
f 293/93/1 291/94/1 292/95/1 294/96/1
f 295/93/1 293/94/1 294/95/1 296/96/1
f 297/93/1 295/94/1 296/95/1 298/96/1
f 303/93/1 301/94/1 302/95/1 304/96/1
f 305/93/1 303/94/1 304/95/1 306/96/1
f 307/93/1 305/94/1 306/95/1 308/96/1
f 309/93/1 307/94/1 308/95/1 310/96/1
f 311/93/1 309/94/1 310/95/1 312/96/1

