# Wavefront OBJ file automatically generated by Tiled2Unity

# Vertices (Count = 320)
v -44800 -3200 0
v -48000 -3200 0
v -48000 0 0
v -44800 0 0
v -41600 -3200 0
v -41600 0 0
v -38400 -3200 0
v -38400 0 0
v -35200 -3200 0
v -35200 0 0
v -32000 -3200 0
v -32000 0 0
v -28800 -3200 0
v -28800 0 0
v -25600 -3200 0
v -25600 0 0
v -22400 -3200 0
v -22400 0 0
v -19200 -3200 0
v -19200 0 0
v -16000 -3200 0
v -16000 0 0
v -12800 -3200 0
v -12800 0 0
v -9600 -3200 0
v -9600 0 0
v -6400 -3200 0
v -6400 0 0
v -3200 -3200 0
v -3200 0 0
v 0 -3200 0
v 0 0 0
v -44800 -6400 -0.1
v -48000 -6400 -0.1
v -48000 -3200 -0.1
v -44800 -3200 -0.1
v -41600 -6400 -0.1
v -41600 -3200 -0.1
v -38400 -6400 -0.1
v -38400 -3200 -0.1
v -35200 -6400 -0.1
v -35200 -3200 -0.1
v -32000 -6400 -0.1
v -32000 -3200 -0.1
v -28800 -6400 -0.1
v -28800 -3200 -0.1
v -25600 -6400 -0.1
v -25600 -3200 -0.1
v -22400 -6400 -0.1
v -22400 -3200 -0.1
v -19200 -6400 -0.1
v -19200 -3200 -0.1
v -16000 -6400 -0.1
v -16000 -3200 -0.1
v -12800 -6400 -0.1
v -12800 -3200 -0.1
v -9600 -6400 -0.1
v -9600 -3200 -0.1
v -6400 -6400 -0.1
v -6400 -3200 -0.1
v -3200 -6400 -0.1
v -3200 -3200 -0.1
v 0 -6400 -0.1
v 0 -3200 -0.1
v -44800 -9600 -0.2
v -48000 -9600 -0.2
v -48000 -6400 -0.2
v -44800 -6400 -0.2
v -41600 -9600 -0.2
v -41600 -6400 -0.2
v -38400 -9600 -0.2
v -38400 -6400 -0.2
v -35200 -9600 -0.2
v -35200 -6400 -0.2
v -32000 -9600 -0.2
v -32000 -6400 -0.2
v -28800 -9600 -0.2
v -28800 -6400 -0.2
v -25600 -9600 -0.2
v -25600 -6400 -0.2
v -22400 -9600 -0.2
v -22400 -6400 -0.2
v -19200 -9600 -0.2
v -19200 -6400 -0.2
v -16000 -9600 -0.2
v -16000 -6400 -0.2
v -12800 -9600 -0.2
v -12800 -6400 -0.2
v -9600 -9600 -0.2
v -9600 -6400 -0.2
v -6400 -9600 -0.2
v -6400 -6400 -0.2
v -3200 -9600 -0.2
v -3200 -6400 -0.2
v 0 -9600 -0.2
v 0 -6400 -0.2
v -44800 -12800 -0.3
v -48000 -12800 -0.3
v -48000 -9600 -0.3
v -44800 -9600 -0.3
v -41600 -12800 -0.3
v -41600 -9600 -0.3
v -38400 -12800 -0.3
v -38400 -9600 -0.3
v -35200 -12800 -0.3
v -35200 -9600 -0.3
v -32000 -12800 -0.3
v -32000 -9600 -0.3
v -28800 -12800 -0.3
v -28800 -9600 -0.3
v -25600 -12800 -0.3
v -25600 -9600 -0.3
v -22400 -12800 -0.3
v -22400 -9600 -0.3
v -19200 -12800 -0.3
v -19200 -9600 -0.3
v -16000 -12800 -0.3
v -16000 -9600 -0.3
v -12800 -12800 -0.3
v -12800 -9600 -0.3
v -9600 -12800 -0.3
v -9600 -9600 -0.3
v -6400 -12800 -0.3
v -6400 -9600 -0.3
v -3200 -12800 -0.3
v -3200 -9600 -0.3
v 0 -12800 -0.3
v 0 -9600 -0.3
v -44800 -16000 -0.4
v -48000 -16000 -0.4
v -48000 -12800 -0.4
v -44800 -12800 -0.4
v -41600 -16000 -0.4
v -41600 -12800 -0.4
v -38400 -16000 -0.4
v -38400 -12800 -0.4
v -35200 -16000 -0.4
v -35200 -12800 -0.4
v -32000 -16000 -0.4
v -32000 -12800 -0.4
v -28800 -16000 -0.4
v -28800 -12800 -0.4
v -25600 -16000 -0.4
v -25600 -12800 -0.4
v -22400 -16000 -0.4
v -22400 -12800 -0.4
v -19200 -16000 -0.4
v -19200 -12800 -0.4
v -16000 -16000 -0.4
v -16000 -12800 -0.4
v -12800 -16000 -0.4
v -12800 -12800 -0.4
v -9600 -16000 -0.4
v -9600 -12800 -0.4
v -6400 -16000 -0.4
v -6400 -12800 -0.4
v -3200 -16000 -0.4
v -3200 -12800 -0.4
v 0 -16000 -0.4
v 0 -12800 -0.4
v -44800 -19200 -0.5
v -48000 -19200 -0.5
v -48000 -16000 -0.5
v -44800 -16000 -0.5
v -41600 -19200 -0.5
v -41600 -16000 -0.5
v -38400 -19200 -0.5
v -38400 -16000 -0.5
v -35200 -19200 -0.5
v -35200 -16000 -0.5
v -32000 -19200 -0.5
v -32000 -16000 -0.5
v -28800 -19200 -0.5
v -28800 -16000 -0.5
v -25600 -19200 -0.5
v -25600 -16000 -0.5
v -22400 -19200 -0.5
v -22400 -16000 -0.5
v -19200 -19200 -0.5
v -19200 -16000 -0.5
v -16000 -19200 -0.5
v -16000 -16000 -0.5
v -12800 -19200 -0.5
v -12800 -16000 -0.5
v -9600 -19200 -0.5
v -9600 -16000 -0.5
v -6400 -19200 -0.5
v -6400 -16000 -0.5
v -3200 -19200 -0.5
v -3200 -16000 -0.5
v 0 -19200 -0.5
v 0 -16000 -0.5
v -44800 -22400 -0.6
v -48000 -22400 -0.6
v -48000 -19200 -0.6
v -44800 -19200 -0.6
v -41600 -22400 -0.6
v -41600 -19200 -0.6
v -38400 -22400 -0.6
v -38400 -19200 -0.6
v -35200 -22400 -0.6
v -35200 -19200 -0.6
v -32000 -22400 -0.6
v -32000 -19200 -0.6
v -28800 -22400 -0.6
v -28800 -19200 -0.6
v -25600 -22400 -0.6
v -25600 -19200 -0.6
v -22400 -22400 -0.6
v -22400 -19200 -0.6
v -19200 -22400 -0.6
v -19200 -19200 -0.6
v -16000 -22400 -0.6
v -16000 -19200 -0.6
v -12800 -22400 -0.6
v -12800 -19200 -0.6
v -9600 -22400 -0.6
v -9600 -19200 -0.6
v -6400 -22400 -0.6
v -6400 -19200 -0.6
v -3200 -22400 -0.6
v -3200 -19200 -0.6
v 0 -22400 -0.6
v 0 -19200 -0.6
v -44800 -25600 -0.7
v -48000 -25600 -0.7
v -48000 -22400 -0.7
v -44800 -22400 -0.7
v -41600 -25600 -0.7
v -41600 -22400 -0.7
v -38400 -25600 -0.7
v -38400 -22400 -0.7
v -35200 -25600 -0.7
v -35200 -22400 -0.7
v -32000 -25600 -0.7
v -32000 -22400 -0.7
v -28800 -25600 -0.7
v -28800 -22400 -0.7
v -25600 -25600 -0.7
v -25600 -22400 -0.7
v -22400 -25600 -0.7
v -22400 -22400 -0.7
v -19200 -25600 -0.7
v -19200 -22400 -0.7
v -16000 -25600 -0.7
v -16000 -22400 -0.7
v -12800 -25600 -0.7
v -12800 -22400 -0.7
v -9600 -25600 -0.7
v -9600 -22400 -0.7
v -6400 -25600 -0.7
v -6400 -22400 -0.7
v -3200 -25600 -0.7
v -3200 -22400 -0.7
v 0 -25600 -0.7
v 0 -22400 -0.7
v -44800 -28800 -0.8
v -48000 -28800 -0.8
v -48000 -25600 -0.8
v -44800 -25600 -0.8
v -41600 -28800 -0.8
v -41600 -25600 -0.8
v -38400 -28800 -0.8
v -38400 -25600 -0.8
v -35200 -28800 -0.8
v -35200 -25600 -0.8
v -32000 -28800 -0.8
v -32000 -25600 -0.8
v -28800 -28800 -0.8
v -28800 -25600 -0.8
v -25600 -28800 -0.8
v -25600 -25600 -0.8
v -22400 -28800 -0.8
v -22400 -25600 -0.8
v -19200 -28800 -0.8
v -19200 -25600 -0.8
v -16000 -28800 -0.8
v -16000 -25600 -0.8
v -12800 -28800 -0.8
v -12800 -25600 -0.8
v -9600 -28800 -0.8
v -9600 -25600 -0.8
v -6400 -28800 -0.8
v -6400 -25600 -0.8
v -3200 -28800 -0.8
v -3200 -25600 -0.8
v 0 -28800 -0.8
v 0 -25600 -0.8
v -44800 -32000 -0.9
v -48000 -32000 -0.9
v -48000 -28800 -0.9
v -44800 -28800 -0.9
v -41600 -32000 -0.9
v -41600 -28800 -0.9
v -38400 -32000 -0.9
v -38400 -28800 -0.9
v -35200 -32000 -0.9
v -35200 -28800 -0.9
v -32000 -32000 -0.9
v -32000 -28800 -0.9
v -28800 -32000 -0.9
v -28800 -28800 -0.9
v -25600 -32000 -0.9
v -25600 -28800 -0.9
v -22400 -32000 -0.9
v -22400 -28800 -0.9
v -19200 -32000 -0.9
v -19200 -28800 -0.9
v -16000 -32000 -0.9
v -16000 -28800 -0.9
v -12800 -32000 -0.9
v -12800 -28800 -0.9
v -9600 -32000 -0.9
v -9600 -28800 -0.9
v -6400 -32000 -0.9
v -6400 -28800 -0.9
v -3200 -32000 -0.9
v -3200 -28800 -0.9
v 0 -32000 -0.9
v 0 -28800 -0.9

# Texture cooridinates (Count = 52)
vt 0.3125076 0.3750076
vt 0.3749924 0.3750076
vt 0.3749924 0.4374924
vt 0.3125076 0.4374924
vt 0.3750076 0.4375076
vt 0.4374924 0.4375076
vt 0.4374924 0.4999924
vt 0.3750076 0.4999924
vt 0.1000122 1.221895E-05
vt 0.1999878 1.221895E-05
vt 0.1999878 0.0999878
vt 0.1000122 0.0999878
vt 0.1000122 0.4000122
vt 0.1999878 0.4000122
vt 0.1999878 0.4999878
vt 0.1000122 0.4999878
vt 1.220703E-05 1.221895E-05
vt 0.09998779 1.221895E-05
vt 0.09998779 0.0999878
vt 1.220703E-05 0.0999878
vt 0.1000122 0.6000122
vt 0.1999878 0.6000122
vt 0.1999878 0.6999878
vt 0.1000122 0.6999878
vt 0.2000122 0.5000122
vt 0.2999878 0.5000122
vt 0.2999878 0.5999878
vt 0.2000122 0.5999878
vt 0.2000122 0.4000122
vt 0.2999878 0.4000122
vt 0.2999878 0.4999878
vt 0.2000122 0.4999878
vt 0.2000122 0.6000122
vt 0.2999878 0.6000122
vt 0.2999878 0.6999878
vt 0.2000122 0.6999878
vt 1.220703E-05 0.6000122
vt 0.09998779 0.6000122
vt 0.09998779 0.6999878
vt 1.220703E-05 0.6999878
vt 0.3000122 1.221895E-05
vt 0.3999878 1.221895E-05
vt 0.3999878 0.0999878
vt 0.3000122 0.0999878
vt 0.2000122 1.221895E-05
vt 0.2999878 1.221895E-05
vt 0.2999878 0.0999878
vt 0.2000122 0.0999878
vt 0.4375076 0.4375076
vt 0.4999924 0.4375076
vt 0.4999924 0.4999924
vt 0.4375076 0.4999924

# Normal
vn 0 0 -1

# Groups (Count = 3)

g mesh_0001
f 1/1/1 2/2/1 3/3/1 4/4/1
f 5/1/1 1/2/1 4/3/1 6/4/1
f 7/1/1 5/2/1 6/3/1 8/4/1
f 9/1/1 7/2/1 8/3/1 10/4/1
f 11/1/1 9/2/1 10/3/1 12/4/1
f 13/1/1 11/2/1 12/3/1 14/4/1
f 15/1/1 13/2/1 14/3/1 16/4/1
f 17/1/1 15/2/1 16/3/1 18/4/1
f 19/1/1 17/2/1 18/3/1 20/4/1
f 21/1/1 19/2/1 20/3/1 22/4/1
f 23/1/1 21/2/1 22/3/1 24/4/1
f 25/1/1 23/2/1 24/3/1 26/4/1
f 27/1/1 25/2/1 26/3/1 28/4/1
f 29/1/1 27/2/1 28/3/1 30/4/1
f 31/1/1 29/2/1 30/3/1 32/4/1
f 33/1/1 34/2/1 35/3/1 36/4/1
f 37/5/1 33/6/1 36/7/1 38/8/1
f 39/5/1 37/6/1 38/7/1 40/8/1
f 41/5/1 39/6/1 40/7/1 42/8/1
f 43/5/1 41/6/1 42/7/1 44/8/1
f 45/5/1 43/6/1 44/7/1 46/8/1
f 47/5/1 45/6/1 46/7/1 48/8/1
f 49/5/1 47/6/1 48/7/1 50/8/1
f 51/5/1 49/6/1 50/7/1 52/8/1
f 53/5/1 51/6/1 52/7/1 54/8/1
f 55/5/1 53/6/1 54/7/1 56/8/1
f 57/5/1 55/6/1 56/7/1 58/8/1
f 59/5/1 57/6/1 58/7/1 60/8/1
f 61/5/1 59/6/1 60/7/1 62/8/1
f 63/1/1 61/2/1 62/3/1 64/4/1
f 65/1/1 66/2/1 67/3/1 68/4/1
f 69/5/1 65/6/1 68/7/1 70/8/1
f 71/5/1 69/6/1 70/7/1 72/8/1
f 73/5/1 71/6/1 72/7/1 74/8/1
f 75/5/1 73/6/1 74/7/1 76/8/1
f 77/5/1 75/6/1 76/7/1 78/8/1
f 79/5/1 77/6/1 78/7/1 80/8/1
f 81/5/1 79/6/1 80/7/1 82/8/1
f 83/5/1 81/6/1 82/7/1 84/8/1
f 85/5/1 83/6/1 84/7/1 86/8/1
f 87/5/1 85/6/1 86/7/1 88/8/1
f 89/5/1 87/6/1 88/7/1 90/8/1
f 91/5/1 89/6/1 90/7/1 92/8/1
f 93/5/1 91/6/1 92/7/1 94/8/1
f 95/1/1 93/2/1 94/3/1 96/4/1
f 97/1/1 98/2/1 99/3/1 100/4/1
f 101/5/1 97/6/1 100/7/1 102/8/1
f 103/5/1 101/6/1 102/7/1 104/8/1
f 105/5/1 103/6/1 104/7/1 106/8/1
f 107/5/1 105/6/1 106/7/1 108/8/1
f 109/5/1 107/6/1 108/7/1 110/8/1
f 111/5/1 109/6/1 110/7/1 112/8/1
f 113/5/1 111/6/1 112/7/1 114/8/1
f 115/5/1 113/6/1 114/7/1 116/8/1
f 117/5/1 115/6/1 116/7/1 118/8/1
f 119/5/1 117/6/1 118/7/1 120/8/1
f 121/5/1 119/6/1 120/7/1 122/8/1
f 123/5/1 121/6/1 122/7/1 124/8/1
f 125/5/1 123/6/1 124/7/1 126/8/1
f 127/1/1 125/2/1 126/3/1 128/4/1
f 129/1/1 130/2/1 131/3/1 132/4/1
f 133/5/1 129/6/1 132/7/1 134/8/1
f 135/5/1 133/6/1 134/7/1 136/8/1
f 137/5/1 135/6/1 136/7/1 138/8/1
f 139/5/1 137/6/1 138/7/1 140/8/1
f 141/5/1 139/6/1 140/7/1 142/8/1
f 143/5/1 141/6/1 142/7/1 144/8/1
f 145/5/1 143/6/1 144/7/1 146/8/1
f 147/5/1 145/6/1 146/7/1 148/8/1
f 149/5/1 147/6/1 148/7/1 150/8/1
f 151/5/1 149/6/1 150/7/1 152/8/1
f 153/5/1 151/6/1 152/7/1 154/8/1
f 155/5/1 153/6/1 154/7/1 156/8/1
f 157/5/1 155/6/1 156/7/1 158/8/1
f 159/5/1 157/6/1 158/7/1 160/8/1
f 161/1/1 162/2/1 163/3/1 164/4/1
f 165/5/1 161/6/1 164/7/1 166/8/1
f 167/5/1 165/6/1 166/7/1 168/8/1
f 169/5/1 167/6/1 168/7/1 170/8/1
f 171/5/1 169/6/1 170/7/1 172/8/1
f 173/5/1 171/6/1 172/7/1 174/8/1
f 175/5/1 173/6/1 174/7/1 176/8/1
f 177/5/1 175/6/1 176/7/1 178/8/1
f 179/5/1 177/6/1 178/7/1 180/8/1
f 181/5/1 179/6/1 180/7/1 182/8/1
f 183/5/1 181/6/1 182/7/1 184/8/1
f 185/5/1 183/6/1 184/7/1 186/8/1
f 187/5/1 185/6/1 186/7/1 188/8/1
f 189/5/1 187/6/1 188/7/1 190/8/1
f 191/5/1 189/6/1 190/7/1 192/8/1
f 193/1/1 194/2/1 195/3/1 196/4/1
f 197/5/1 193/6/1 196/7/1 198/8/1
f 199/5/1 197/6/1 198/7/1 200/8/1
f 201/5/1 199/6/1 200/7/1 202/8/1
f 203/5/1 201/6/1 202/7/1 204/8/1
f 205/5/1 203/6/1 204/7/1 206/8/1
f 207/5/1 205/6/1 206/7/1 208/8/1
f 209/5/1 207/6/1 208/7/1 210/8/1
f 211/5/1 209/6/1 210/7/1 212/8/1
f 213/5/1 211/6/1 212/7/1 214/8/1
f 215/5/1 213/6/1 214/7/1 216/8/1
f 217/5/1 215/6/1 216/7/1 218/8/1
f 219/5/1 217/6/1 218/7/1 220/8/1
f 221/5/1 219/6/1 220/7/1 222/8/1
f 223/1/1 221/2/1 222/3/1 224/4/1
f 225/1/1 226/2/1 227/3/1 228/4/1
f 229/5/1 225/6/1 228/7/1 230/8/1
f 231/5/1 229/6/1 230/7/1 232/8/1
f 233/5/1 231/6/1 232/7/1 234/8/1
f 235/5/1 233/6/1 234/7/1 236/8/1
f 237/5/1 235/6/1 236/7/1 238/8/1
f 239/5/1 237/6/1 238/7/1 240/8/1
f 241/5/1 239/6/1 240/7/1 242/8/1
f 243/5/1 241/6/1 242/7/1 244/8/1
f 245/5/1 243/6/1 244/7/1 246/8/1
f 247/5/1 245/6/1 246/7/1 248/8/1
f 249/5/1 247/6/1 248/7/1 250/8/1
f 251/5/1 249/6/1 250/7/1 252/8/1
f 253/5/1 251/6/1 252/7/1 254/8/1
f 255/1/1 253/2/1 254/3/1 256/4/1
f 257/1/1 258/2/1 259/3/1 260/4/1
f 261/5/1 257/6/1 260/7/1 262/8/1
f 263/5/1 261/6/1 262/7/1 264/8/1
f 265/5/1 263/6/1 264/7/1 266/8/1
f 267/5/1 265/6/1 266/7/1 268/8/1
f 269/5/1 267/6/1 268/7/1 270/8/1
f 271/5/1 269/6/1 270/7/1 272/8/1
f 273/5/1 271/6/1 272/7/1 274/8/1
f 275/5/1 273/6/1 274/7/1 276/8/1
f 277/5/1 275/6/1 276/7/1 278/8/1
f 279/5/1 277/6/1 278/7/1 280/8/1
f 281/5/1 279/6/1 280/7/1 282/8/1
f 283/5/1 281/6/1 282/7/1 284/8/1
f 285/5/1 283/6/1 284/7/1 286/8/1
f 287/1/1 285/2/1 286/3/1 288/4/1
f 289/1/1 290/2/1 291/3/1 292/4/1
f 293/1/1 289/2/1 292/3/1 294/4/1
f 295/1/1 293/2/1 294/3/1 296/4/1
f 297/1/1 295/2/1 296/3/1 298/4/1
f 299/1/1 297/2/1 298/3/1 300/4/1
f 301/1/1 299/2/1 300/3/1 302/4/1
f 303/1/1 301/2/1 302/3/1 304/4/1
f 305/1/1 303/2/1 304/3/1 306/4/1
f 307/1/1 305/2/1 306/3/1 308/4/1
f 309/1/1 307/2/1 308/3/1 310/4/1
f 311/1/1 309/2/1 310/3/1 312/4/1
f 313/1/1 311/2/1 312/3/1 314/4/1
f 315/1/1 313/2/1 314/3/1 316/4/1
f 317/1/1 315/2/1 316/3/1 318/4/1
f 319/1/1 317/2/1 318/3/1 320/4/1

g mesh_0002
f 37/9/1 33/10/1 36/11/1 38/12/1
f 39/13/1 37/14/1 38/15/1 40/16/1
f 41/13/1 39/14/1 40/15/1 42/16/1
f 43/13/1 41/14/1 42/15/1 44/16/1
f 45/13/1 43/14/1 44/15/1 46/16/1
f 47/13/1 45/14/1 46/15/1 48/16/1
f 49/13/1 47/14/1 48/15/1 50/16/1
f 51/13/1 49/14/1 50/15/1 52/16/1
f 53/13/1 51/14/1 52/15/1 54/16/1
f 55/13/1 53/14/1 54/15/1 56/16/1
f 57/13/1 55/14/1 56/15/1 58/16/1
f 59/13/1 57/14/1 58/15/1 60/16/1
f 61/17/1 59/18/1 60/19/1 62/20/1
f 69/21/1 65/22/1 68/23/1 70/24/1
f 93/25/1 91/26/1 92/27/1 94/28/1
f 101/21/1 97/22/1 100/23/1 102/24/1
f 125/25/1 123/26/1 124/27/1 126/28/1
f 133/21/1 129/22/1 132/23/1 134/24/1
f 157/29/1 155/30/1 156/31/1 158/32/1
f 159/13/1 157/14/1 158/15/1 160/16/1
f 165/21/1 161/22/1 164/23/1 166/24/1
f 189/33/1 187/34/1 188/35/1 190/36/1
f 191/37/1 189/38/1 190/39/1 192/40/1
f 197/21/1 193/22/1 196/23/1 198/24/1
f 221/25/1 219/26/1 220/27/1 222/28/1
f 229/21/1 225/22/1 228/23/1 230/24/1
f 253/25/1 251/26/1 252/27/1 254/28/1
f 261/41/1 257/42/1 260/43/1 262/44/1
f 263/37/1 261/38/1 262/39/1 264/40/1
f 265/37/1 263/38/1 264/39/1 266/40/1
f 267/37/1 265/38/1 266/39/1 268/40/1
f 269/37/1 267/38/1 268/39/1 270/40/1
f 271/37/1 269/38/1 270/39/1 272/40/1
f 273/37/1 271/38/1 272/39/1 274/40/1
f 275/37/1 273/38/1 274/39/1 276/40/1
f 277/37/1 275/38/1 276/39/1 278/40/1
f 279/37/1 277/38/1 278/39/1 280/40/1
f 281/37/1 279/38/1 280/39/1 282/40/1
f 283/37/1 281/38/1 282/39/1 284/40/1
f 285/45/1 283/46/1 284/47/1 286/48/1

g mesh_0003
f 1/49/1 2/50/1 3/51/1 4/52/1
f 5/49/1 1/50/1 4/51/1 6/52/1
f 7/49/1 5/50/1 6/51/1 8/52/1
f 9/49/1 7/50/1 8/51/1 10/52/1
f 11/49/1 9/50/1 10/51/1 12/52/1
f 13/49/1 11/50/1 12/51/1 14/52/1
f 15/49/1 13/50/1 14/51/1 16/52/1
f 17/49/1 15/50/1 16/51/1 18/52/1
f 19/49/1 17/50/1 18/51/1 20/52/1
f 21/49/1 19/50/1 20/51/1 22/52/1
f 23/49/1 21/50/1 22/51/1 24/52/1
f 25/49/1 23/50/1 24/51/1 26/52/1
f 27/49/1 25/50/1 26/51/1 28/52/1
f 29/49/1 27/50/1 28/51/1 30/52/1
f 31/49/1 29/50/1 30/51/1 32/52/1
f 33/49/1 34/50/1 35/51/1 36/52/1
f 63/49/1 61/50/1 62/51/1 64/52/1
f 65/49/1 66/50/1 67/51/1 68/52/1
f 95/49/1 93/50/1 94/51/1 96/52/1
f 97/49/1 98/50/1 99/51/1 100/52/1
f 127/49/1 125/50/1 126/51/1 128/52/1
f 129/49/1 130/50/1 131/51/1 132/52/1
f 161/49/1 162/50/1 163/51/1 164/52/1
f 193/49/1 194/50/1 195/51/1 196/52/1
f 223/49/1 221/50/1 222/51/1 224/52/1
f 225/49/1 226/50/1 227/51/1 228/52/1
f 255/49/1 253/50/1 254/51/1 256/52/1
f 257/49/1 258/50/1 259/51/1 260/52/1
f 287/49/1 285/50/1 286/51/1 288/52/1
f 289/49/1 290/50/1 291/51/1 292/52/1
f 293/49/1 289/50/1 292/51/1 294/52/1
f 295/49/1 293/50/1 294/51/1 296/52/1
f 297/49/1 295/50/1 296/51/1 298/52/1
f 299/49/1 297/50/1 298/51/1 300/52/1
f 301/49/1 299/50/1 300/51/1 302/52/1
f 303/49/1 301/50/1 302/51/1 304/52/1
f 305/49/1 303/50/1 304/51/1 306/52/1
f 307/49/1 305/50/1 306/51/1 308/52/1
f 309/49/1 307/50/1 308/51/1 310/52/1
f 311/49/1 309/50/1 310/51/1 312/52/1
f 313/49/1 311/50/1 312/51/1 314/52/1
f 315/49/1 313/50/1 314/51/1 316/52/1
f 317/49/1 315/50/1 316/51/1 318/52/1
f 319/49/1 317/50/1 318/51/1 320/52/1

